<?xml version="1.0" encoding="UTF-8" standalone="no" ?>
<!DOCTYPE svg PUBLIC "-//W3C//DTD SVG 1.1//EN" "http://www.w3.org/Graphics/SVG/1.1/DTD/svg11.dtd">
<svg xmlns="http://www.w3.org/2000/svg" xmlns:xlink="http://www.w3.org/1999/xlink" version="1.1" width="1080" height="1080" viewBox="0 0 1080 1080" xml:space="preserve">
<desc>Created with Fabric.js 5.2.4</desc>
<defs>
</defs>
<g transform="matrix(1 0 0 1 540 540)" id="3ce2d26a-27b7-45ff-8945-600c786ef436"  >
<rect style="stroke: none; stroke-width: 1; stroke-dasharray: none; stroke-linecap: butt; stroke-dashoffset: 0; stroke-linejoin: miter; stroke-miterlimit: 4; fill: rgb(255,255,255); fill-rule: nonzero; opacity: 1; visibility: hidden;" vector-effect="non-scaling-stroke"  x="-540" y="-540" rx="0" ry="0" width="1080" height="1080" />
</g>
<g transform="matrix(1 0 0 1 540 540)" id="d525995f-2f64-4bd6-91f4-45397d96326b"  >
</g>
<g transform="matrix(21.6 0 0 21.6 540 540)"  >
<g style=""   >
		<g transform="matrix(1 0 0 1 0 0)"  >
<path style="stroke: none; stroke-width: 1; stroke-dasharray: none; stroke-linecap: butt; stroke-dashoffset: 0; stroke-linejoin: miter; stroke-miterlimit: 4; fill: rgb(89,86,233); fill-rule: nonzero; opacity: 1;" vector-effect="non-scaling-stroke"  transform=" translate(-25, -23)" d="M 0 4.25022 C 0 2.05477 1.78182 0.272949 3.97727 0.272949 L 46.0227 0.272949 C 48.2182 0.272949 50 2.05477 50 4.25022 L 50 13.3411 C 50 13.7932 49.8204 14.2268 49.5008 14.5464 C 49.1811 14.8661 48.7475 15.0457 48.2955 15.0457 C 47.8434 15.0457 47.4098 14.8661 47.0902 14.5464 C 46.7705 14.2268 46.5909 13.7932 46.5909 13.3411 L 46.5909 4.25022 C 46.5909 4.09953 46.531 3.95501 46.4245 3.84846 C 46.3179 3.7419 46.1734 3.68204 46.0227 3.68204 L 3.97727 3.68204 C 3.82658 3.68204 3.68206 3.7419 3.57551 3.84846 C 3.46895 3.95501 3.40909 4.09953 3.40909 4.25022 L 3.40909 30.3866 C 3.40909 30.7002 3.66364 30.9548 3.97727 30.9548 L 24.4318 30.9548 C 24.8839 30.9548 25.3174 31.1344 25.6371 31.454 C 25.9568 31.7737 26.1364 32.2072 26.1364 32.6593 C 26.1364 33.1114 25.9568 33.5449 25.6371 33.8646 C 25.3174 34.1843 24.8839 34.3639 24.4318 34.3639 L 21.5068 34.3639 C 21.2205 37.2411 20.225 39.9207 18.7273 42.3184 L 24.4318 42.3184 C 24.8839 42.3184 25.3174 42.498 25.6371 42.8177 C 25.9568 43.1373 26.1364 43.5709 26.1364 44.0229 C 26.1364 44.475 25.9568 44.9086 25.6371 45.2282 C 25.3174 45.5479 24.8839 45.7275 24.4318 45.7275 L 15.3409 45.7275 C 15.0137 45.7274 14.6934 45.6331 14.4184 45.456 C 14.1433 45.2788 13.925 45.0262 13.7896 44.7283 C 13.6542 44.4304 13.6074 44.0999 13.6548 43.7761 C 13.7022 43.4524 13.8417 43.1491 14.0568 42.9025 C 16.2477 40.3911 17.6886 37.4889 18.0773 34.3639 L 3.97727 34.3639 C 2.92243 34.3639 1.9108 33.9448 1.16492 33.1989 C 0.419033 32.4531 0 31.4414 0 30.3866 L 0 4.25022 Z" stroke-linecap="round" />
</g>
		<g transform="matrix(1 0 0 1 14.77 9.09)"  >
<path style="stroke: none; stroke-width: 1; stroke-dasharray: none; stroke-linecap: butt; stroke-dashoffset: 0; stroke-linejoin: miter; stroke-miterlimit: 4; fill: rgb(89,86,233); fill-rule: nonzero; opacity: 1;" vector-effect="non-scaling-stroke"  transform=" translate(-39.77, -32.09)" d="M 29.5454 22.4319 C 29.5454 20.2341 31.325 18.4546 33.5227 18.4546 L 46.0227 18.4546 C 48.2181 18.4546 50 20.2341 50 22.4319 L 50 41.75 C 50 42.8049 49.5809 43.8165 48.835 44.5624 C 48.0892 45.3083 47.0775 45.7273 46.0227 45.7273 L 33.5227 45.7273 C 32.4678 45.7273 31.4562 45.3083 30.7103 44.5624 C 29.9644 43.8165 29.5454 42.8049 29.5454 41.75 L 29.5454 22.4319 Z M 33.5227 21.8637 C 33.372 21.8637 33.2275 21.9235 33.1209 22.0301 C 33.0144 22.1367 32.9545 22.2812 32.9545 22.4319 L 32.9545 41.75 C 32.9545 42.0637 33.209 42.3182 33.5227 42.3182 L 46.0227 42.3182 C 46.1734 42.3182 46.3179 42.2584 46.4244 42.1518 C 46.531 42.0453 46.5909 41.9007 46.5909 41.75 L 46.5909 22.4319 C 46.5909 22.2812 46.531 22.1367 46.4244 22.0301 C 46.3179 21.9235 46.1734 21.8637 46.0227 21.8637 L 33.5227 21.8637 Z" stroke-linecap="round" />
</g>
</g>
</g>
</svg>